<svg width="22" height="28" viewBox="0 0 22 28" fill="none" xmlns="http://www.w3.org/2000/svg">
<path d="M21.9977 25.2083C21.9401 21.5212 20.7914 18.1686 18.7491 15.7412C16.7187 13.3286 13.9669 12 10.9999 12C8.03294 12 5.28119 13.3286 3.25075 15.7412C1.21038 18.166 0.0624414 21.5139 0.00244141 25.1965C1.15619 25.7744 5.93057 28 10.9999 28C16.4817 28 20.9278 25.7875 21.9977 25.2083V25.2083Z" fill="black"/>
<path d="M11 11C14.0376 11 16.5 8.53757 16.5 5.5C16.5 2.46243 14.0376 0 11 0C7.96243 0 5.5 2.46243 5.5 5.5C5.5 8.53757 7.96243 11 11 11Z" fill="black"/>
</svg>
